<svg id="SvgjsSvg1154" width="868.15625" height="911.03125" xmlns="http://www.w3.org/2000/svg" version="1.1" xmlns:xlink="http://www.w3.org/1999/xlink" xmlns:svgjs="http://svgjs.com/svgjs"><defs id="SvgjsDefs1155"><marker id="SvgjsMarker1178" markerWidth="16" markerHeight="12" refX="16" refY="6" viewBox="0 0 16 12" orient="auto" markerUnits="userSpaceOnUse"><path id="SvgjsPath1179" d="M0,2 L14,6 L0,11 L0,2" fill="#323232" stroke="#323232" stroke-width="2"></path></marker><marker id="SvgjsMarker1182" markerWidth="16" markerHeight="12" refX="16" refY="6" viewBox="0 0 16 12" orient="auto" markerUnits="userSpaceOnUse"><path id="SvgjsPath1183" d="M0,2 L14,6 L0,11 L0,2" fill="#323232" stroke="#323232" stroke-width="2"></path></marker><marker id="SvgjsMarker1190" markerWidth="16" markerHeight="12" refX="16" refY="6" viewBox="0 0 16 12" orient="auto" markerUnits="userSpaceOnUse"><path id="SvgjsPath1191" d="M0,2 L14,6 L0,11 L0,2" fill="#323232" stroke="#323232" stroke-width="2"></path></marker><marker id="SvgjsMarker1200" markerWidth="16" markerHeight="12" refX="16" refY="6" viewBox="0 0 16 12" orient="auto" markerUnits="userSpaceOnUse"><path id="SvgjsPath1201" d="M0,2 L14,6 L0,11 L0,2" fill="#323232" stroke="#323232" stroke-width="2"></path></marker><marker id="SvgjsMarker1216" markerWidth="16" markerHeight="12" refX="16" refY="6" viewBox="0 0 16 12" orient="auto" markerUnits="userSpaceOnUse"><path id="SvgjsPath1217" d="M0,2 L14,6 L0,11 L0,2" fill="#323232" stroke="#323232" stroke-width="2"></path></marker><marker id="SvgjsMarker1230" markerWidth="16" markerHeight="12" refX="16" refY="6" viewBox="0 0 16 12" orient="auto" markerUnits="userSpaceOnUse"><path id="SvgjsPath1231" d="M0,2 L14,6 L0,11 L0,2" fill="#323232" stroke="#323232" stroke-width="2"></path></marker><marker id="SvgjsMarker1245" markerWidth="16" markerHeight="12" refX="16" refY="6" viewBox="0 0 16 12" orient="auto" markerUnits="userSpaceOnUse"><path id="SvgjsPath1246" d="M0,2 L14,6 L0,11 L0,2" fill="#323232" stroke="#323232" stroke-width="2"></path></marker><marker id="SvgjsMarker1261" markerWidth="16" markerHeight="12" refX="16" refY="6" viewBox="0 0 16 12" orient="auto" markerUnits="userSpaceOnUse"><path id="SvgjsPath1262" d="M0,2 L14,6 L0,11 L0,2" fill="#323232" stroke="#323232" stroke-width="2"></path></marker><marker id="SvgjsMarker1281" markerWidth="16" markerHeight="12" refX="16" refY="6" viewBox="0 0 16 12" orient="auto" markerUnits="userSpaceOnUse"><path id="SvgjsPath1282" d="M0,2 L14,6 L0,11 L0,2" fill="#323232" stroke="#323232" stroke-width="2"></path></marker><marker id="SvgjsMarker1285" markerWidth="16" markerHeight="12" refX="16" refY="6" viewBox="0 0 16 12" orient="auto" markerUnits="userSpaceOnUse"><path id="SvgjsPath1286" d="M0,2 L14,6 L0,11 L0,2" fill="#323232" stroke="#323232" stroke-width="2"></path></marker><marker id="SvgjsMarker1293" markerWidth="16" markerHeight="12" refX="16" refY="6" viewBox="0 0 16 12" orient="auto" markerUnits="userSpaceOnUse"><path id="SvgjsPath1294" d="M0,2 L14,6 L0,11 L0,2" fill="#323232" stroke="#323232" stroke-width="2"></path></marker><marker id="SvgjsMarker1301" markerWidth="16" markerHeight="12" refX="16" refY="6" viewBox="0 0 16 12" orient="auto" markerUnits="userSpaceOnUse"><path id="SvgjsPath1302" d="M0,2 L14,6 L0,11 L0,2" fill="#323232" stroke="#323232" stroke-width="2"></path></marker></defs><g id="SvgjsG1156" transform="translate(274.16903409090924,182.86850649350652)"><path id="SvgjsPath1157" d="M 0 63.5L 69 0L 138 63.5L 69 127Z" stroke="#7fd8d2" stroke-width="2" fill-opacity="1" fill="#ebfdfa"></path><g id="SvgjsG1158"><text id="SvgjsText1159" font-family="微软雅黑" text-anchor="middle" font-size="16px" width="94" fill="#595959" font-weight="400" align="middle" anchor="middle" family="微软雅黑" size="16px" weight="400" font-style="" y="41.73500000000001" transform="rotate(0)"><tspan id="SvgjsTspan1160" dy="20" x="69"><tspan id="SvgjsTspan1161" style="text-decoration:;">w 是运算符</tspan></tspan><tspan id="SvgjsTspan1162" dy="20" x="69"><tspan id="SvgjsTspan1163" style="text-decoration:;">(+、-、*、/)</tspan></tspan></text></g></g><g id="SvgjsG1164" transform="translate(279.16903409090924,55.01136363636357)"><path id="SvgjsPath1165" d="M 0 4Q 0 0 4 0L 124 0Q 128 0 128 4L 128 67Q 128 71 124 71L 4 71Q 0 71 0 67Z" stroke="#7ebff9" stroke-width="2" fill-opacity="1" fill="#eaf7fd"></path><g id="SvgjsG1166"><text id="SvgjsText1167" font-family="微软雅黑" text-anchor="middle" font-size="16px" width="76" fill="#595959" font-weight="400" align="middle" anchor="middle" family="微软雅黑" size="16px" weight="400" font-style="" y="23.1" transform="rotate(0)"><tspan id="SvgjsTspan1168" dy="20" x="64"><tspan id="SvgjsTspan1169" style="text-decoration:;">读取字符w</tspan></tspan></text></g></g><g id="SvgjsG1170" transform="translate(526.5247192221036,210.86850649350652)"><path id="SvgjsPath1171" d="M 0 4Q 0 0 4 0L 124 0Q 128 0 128 4L 128 67Q 128 71 124 71L 4 71Q 0 71 0 67Z" stroke="#7ebff9" stroke-width="2" fill-opacity="1" fill="#eaf7fd"></path><g id="SvgjsG1172"><text id="SvgjsText1173" font-family="微软雅黑" text-anchor="middle" font-size="16px" width="80" fill="#595959" font-weight="400" align="middle" anchor="middle" family="微软雅黑" size="16px" weight="400" font-style="" y="23.1" transform="rotate(0)"><tspan id="SvgjsTspan1174" dy="20" x="64"><tspan id="SvgjsTspan1175" style="text-decoration:;">入操作数栈</tspan></tspan></text></g></g><g id="SvgjsG1176"><path id="SvgjsPath1177" d="M343.16903409090924 126.01136363636351L343.16903409090924 154.439935064935L343.16903409090924 154.439935064935L343.16903409090924 182.86850649350652" stroke="#323232" stroke-width="2" fill="none" marker-end="url(#SvgjsMarker1178)"></path></g><g id="SvgjsG1180"><path id="SvgjsPath1181" d="M412.1690340909083 246.3685064935064L469.34687665650597 246.3685064935064L469.34687665650597 246.36850649350646L526.5247192221036 246.36850649350646" stroke="#323232" stroke-width="2" fill="none" marker-end="url(#SvgjsMarker1182)"></path><rect id="SvgjsRect1184" width="9" height="16" x="464.84687665650597" y="238.36850649350643" fill="#ffffff"></rect><text id="SvgjsText1185" font-family="微软雅黑" text-anchor="middle" font-size="13px" width="9" fill="#323232" font-weight="400" align="top" anchor="middle" family="微软雅黑" size="13px" weight="400" font-style="" y="236.41850649350644" transform="rotate(0)"><tspan id="SvgjsTspan1186" dy="16" x="469.34687665650597"><tspan id="SvgjsTspan1187" style="text-decoration:;">N</tspan></tspan></text></g><g id="SvgjsG1188"><path id="SvgjsPath1189" d="M590.5247192221036 210.86850649350652L590.5247192221036 90.51136363636357L407.1690340909084 90.51136363636357" stroke="#323232" stroke-width="2" fill="none" marker-end="url(#SvgjsMarker1190)"></path></g><g id="SvgjsG1192" transform="translate(274.16903409090924,374.9724025974025)"><path id="SvgjsPath1193" d="M 0 63.5L 69 0L 138 63.5L 69 127Z" stroke="#7fd8d2" stroke-width="2" fill-opacity="1" fill="#ebfdfa"></path><g id="SvgjsG1194"><text id="SvgjsText1195" font-family="微软雅黑" text-anchor="middle" font-size="16px" width="96" fill="#595959" font-weight="400" align="middle" anchor="middle" family="微软雅黑" size="16px" weight="400" font-style="" y="51.73500000000001" transform="rotate(0)"><tspan id="SvgjsTspan1196" dy="20" x="69"><tspan id="SvgjsTspan1197" style="text-decoration:;">运算符栈为空</tspan></tspan></text></g></g><g id="SvgjsG1198"><path id="SvgjsPath1199" d="M343.16903409090924 309.8685064935062L343.16903409090924 342.42045454545433L343.16903409090924 342.42045454545433L343.16903409090924 374.9724025974025" stroke="#323232" stroke-width="2" fill="none" marker-end="url(#SvgjsMarker1200)"></path><rect id="SvgjsRect1202" width="9" height="16" x="338.66903409090924" y="334.42045454545433" fill="#ffffff"></rect><text id="SvgjsText1203" font-family="微软雅黑" text-anchor="middle" font-size="13px" width="9" fill="#323232" font-weight="400" align="top" anchor="middle" family="微软雅黑" size="13px" weight="400" font-style="" y="332.47045454545434" transform="rotate(0)"><tspan id="SvgjsTspan1204" dy="16" x="343.16903409090924"><tspan id="SvgjsTspan1205" style="text-decoration:;">Y</tspan></tspan></text></g><g id="SvgjsG1206" transform="translate(466.532670454544,374.9724025974025)"><path id="SvgjsPath1207" d="M 0 63.5L 69 0L 138 63.5L 69 127Z" stroke="#7fd8d2" stroke-width="2" fill-opacity="1" fill="#ebfdfa"></path><g id="SvgjsG1208"><text id="SvgjsText1209" font-family="微软雅黑" text-anchor="middle" font-size="16px" width="84" fill="#595959" font-weight="400" align="middle" anchor="middle" family="微软雅黑" size="16px" weight="400" font-style="" y="41.73500000000001" transform="rotate(0)"><tspan id="SvgjsTspan1210" dy="20" x="69"><tspan id="SvgjsTspan1211" style="text-decoration:;">w 是</tspan></tspan><tspan id="SvgjsTspan1212" dy="20" x="69"><tspan id="SvgjsTspan1213" style="text-decoration:;">结束符号(=)</tspan></tspan></text></g></g><g id="SvgjsG1214"><path id="SvgjsPath1215" d="M412.1690340909083 438.4724025974025L439.3508522727261 438.4724025974025L439.3508522727261 438.4724025974027L466.532670454544 438.4724025974027" stroke="#323232" stroke-width="2" fill="none" marker-end="url(#SvgjsMarker1216)"></path><rect id="SvgjsRect1218" width="9" height="16" x="434.8508522727261" y="430.4724025974026" fill="#ffffff"></rect><text id="SvgjsText1219" font-family="微软雅黑" text-anchor="middle" font-size="13px" width="9" fill="#323232" font-weight="400" align="top" anchor="middle" family="微软雅黑" size="13px" weight="400" font-style="" y="428.5224025974026" transform="rotate(0)"><tspan id="SvgjsTspan1220" dy="16" x="439.3508522727261"><tspan id="SvgjsTspan1221" style="text-decoration:;">Y</tspan></tspan></text></g><g id="SvgjsG1222" transform="translate(674.792410714284,403.6217532467531)"><path id="SvgjsPath1223" d="M 0 4Q 0 0 4 0L 124 0Q 128 0 128 4L 128 67Q 128 71 124 71L 4 71Q 0 71 0 67Z" stroke="#7ebff9" stroke-width="2" fill-opacity="1" fill="#eaf7fd"></path><g id="SvgjsG1224"><text id="SvgjsText1225" font-family="微软雅黑" text-anchor="middle" font-size="16px" width="64" fill="#595959" font-weight="400" align="middle" anchor="middle" family="微软雅黑" size="16px" weight="400" font-style="" y="23.1" transform="rotate(0)"><tspan id="SvgjsTspan1226" dy="20" x="64"><tspan id="SvgjsTspan1227" style="text-decoration:;">计算结束</tspan></tspan></text></g></g><g id="SvgjsG1228"><path id="SvgjsPath1229" d="M604.532670454544 438.4724025974027L639.662540584414 438.4724025974027L639.662540584414 439.12175324675326L674.792410714284 439.12175324675326" stroke="#323232" stroke-width="2" fill="none" marker-end="url(#SvgjsMarker1230)"></path><rect id="SvgjsRect1232" width="9" height="16" x="635.162540584414" y="430.7970779220779" fill="#ffffff"></rect><text id="SvgjsText1233" font-family="微软雅黑" text-anchor="middle" font-size="13px" width="9" fill="#323232" font-weight="400" align="top" anchor="middle" family="微软雅黑" size="13px" weight="400" font-style="" y="428.8470779220779" transform="rotate(0)"><tspan id="SvgjsTspan1234" dy="16" x="639.662540584414"><tspan id="SvgjsTspan1235" style="text-decoration:;">Y</tspan></tspan></text></g><g id="SvgjsG1236" transform="translate(684.6060868340843,768.1542207792236)"><path id="SvgjsPath1237" d="M 0 4Q 0 0 4 0L 124 0Q 128 0 128 4L 128 67Q 128 71 124 71L 4 71Q 0 71 0 67Z" stroke="#7ebff9" stroke-width="2" fill-opacity="1" fill="#eaf7fd"></path><g id="SvgjsG1238"><text id="SvgjsText1239" font-family="微软雅黑" text-anchor="middle" font-size="16px" width="80" fill="#595959" font-weight="400" align="middle" anchor="middle" family="微软雅黑" size="16px" weight="400" font-style="" y="23.1" transform="rotate(0)"><tspan id="SvgjsTspan1240" dy="20" x="64"><tspan id="SvgjsTspan1241" style="text-decoration:;">入运算符</tspan><tspan id="SvgjsTspan1242" style="text-decoration:;font-size: inherit;">栈</tspan></tspan></text></g></g><g id="SvgjsG1243"><path id="SvgjsPath1244" d="M535.532670454544 501.9724025974032L535.532670454544 635.0633116883134L748.6060868340842 635.0633116883134L748.6060868340842 768.1542207792236" stroke="#323232" stroke-width="2" fill="none" marker-end="url(#SvgjsMarker1245)"></path><rect id="SvgjsRect1247" width="9" height="16" x="637.5693786443139" y="627.0633116883134" fill="#ffffff"></rect><text id="SvgjsText1248" font-family="微软雅黑" text-anchor="middle" font-size="13px" width="9" fill="#323232" font-weight="400" align="top" anchor="middle" family="微软雅黑" size="13px" weight="400" font-style="" y="625.1133116883134" transform="rotate(0)"><tspan id="SvgjsTspan1249" dy="16" x="642.0693786443139"><tspan id="SvgjsTspan1250" style="text-decoration:;">N</tspan></tspan></text></g><g id="SvgjsG1251" transform="translate(95.77253263318326,503.76646567718046)"><path id="SvgjsPath1252" d="M 0 71.05102040816308L 90.20845481049565 0L 180.4169096209913 71.05102040816308L 90.20845481049565 142.10204081632617Z" stroke="#7fd8d2" stroke-width="2" fill-opacity="1" fill="#ebfdfa"></path><g id="SvgjsG1253"><text id="SvgjsText1254" font-family="微软雅黑" text-anchor="middle" font-size="16px" width="159" fill="#595959" font-weight="400" align="middle" anchor="middle" family="微软雅黑" size="16px" weight="400" font-style="" y="49.361530612244714" transform="rotate(0)"><tspan id="SvgjsTspan1255" dy="20" x="90.5"><tspan id="SvgjsTspan1256" style="text-decoration:;">w 的优先级 &lt;= 运算符</tspan></tspan><tspan id="SvgjsTspan1257" dy="20" x="90.5"><tspan id="SvgjsTspan1258" style="text-decoration:;">栈顶的优先级</tspan></tspan></text></g></g><g id="SvgjsG1259"><path id="SvgjsPath1260" d="M274.16903409090924 438.4724025974025L185.980987443679 438.4724025974025L185.980987443679 503.76646567718046" stroke="#323232" stroke-width="2" fill="none" marker-end="url(#SvgjsMarker1261)"></path><rect id="SvgjsRect1263" width="9" height="16" x="192.92797922740516" y="430.4724025974025" fill="#ffffff"></rect><text id="SvgjsText1264" font-family="微软雅黑" text-anchor="middle" font-size="13px" width="9" fill="#323232" font-weight="400" align="top" anchor="middle" family="微软雅黑" size="13px" weight="400" font-style="" y="428.5224025974025" transform="rotate(0)"><tspan id="SvgjsTspan1265" dy="16" x="197.42797922740516"><tspan id="SvgjsTspan1266" style="text-decoration:;">N</tspan></tspan></text></g><g id="SvgjsG1267" transform="translate(55.00386481620225,757.0317717996296)"><path id="SvgjsPath1268" d="M 0 4Q 0 0 4 0L 258.28571428571433 0Q 262.28571428571433 0 262.28571428571433 4L 262.28571428571433 125.142857142857Q 262.28571428571433 129.142857142857 258.28571428571433 129.142857142857L 4 129.142857142857Q 0 129.142857142857 0 125.142857142857Z" stroke="#7ebff9" stroke-width="2" fill-opacity="1" fill="#eaf7fd"></path><g id="SvgjsG1269"><text id="SvgjsText1270" font-family="微软雅黑" text-anchor="middle" font-size="16px" width="211" fill="#595959" font-weight="400" align="middle" anchor="middle" family="微软雅黑" size="16px" weight="400" font-style="" y="22.1714285714285" transform="rotate(0)"><tspan id="SvgjsTspan1271" dy="20" x="131.5"><tspan id="SvgjsTspan1272" style="text-decoration:;">取操作数栈顶 a 和次顶 b</tspan></tspan><tspan id="SvgjsTspan1273" dy="20" x="131.5"><tspan id="SvgjsTspan1274" style="text-decoration:;">取运算符栈顶 opt</tspan></tspan><tspan id="SvgjsTspan1275" dy="20" x="131.5"><tspan id="SvgjsTspan1276" style="text-decoration:;">计算 b opt a = c</tspan></tspan><tspan id="SvgjsTspan1277" dy="20" x="131.5"><tspan id="SvgjsTspan1278" style="text-decoration:;">再把计算结果 c 放入操作数栈</tspan></tspan></text></g></g><g id="SvgjsG1279"><path id="SvgjsPath1280" d="M55.00386481620225 821.603200371058L25.003864816202253 821.603200371058L25.003864816202253 574.8174860853436L95.77253263318326 574.8174860853436" stroke="#323232" stroke-width="2" fill="none" marker-end="url(#SvgjsMarker1281)"></path></g><g id="SvgjsG1283"><path id="SvgjsPath1284" d="M185.98098744367906 645.8685064935066L185.98098744367906 701.4501391465681L186.14672195905973 701.4501391465681L186.14672195905973 757.0317717996296" stroke="#323232" stroke-width="2" fill="none" marker-end="url(#SvgjsMarker1285)"></path><rect id="SvgjsRect1287" width="9" height="16" x="181.56385470136945" y="693.4501391465681" fill="#ffffff"></rect><text id="SvgjsText1288" font-family="微软雅黑" text-anchor="middle" font-size="13px" width="9" fill="#323232" font-weight="400" align="top" anchor="middle" family="微软雅黑" size="13px" weight="400" font-style="" y="691.500139146568" transform="rotate(0)"><tspan id="SvgjsTspan1289" dy="16" x="186.06385470136945"><tspan id="SvgjsTspan1290" style="text-decoration:;">Y</tspan></tspan></text></g><g id="SvgjsG1291"><path id="SvgjsPath1292" d="M276.1894422541744 574.8174860853436L480.3977645441289 574.8174860853436L480.3977645441289 803.6542207792235L684.6060868340843 803.6542207792235" stroke="#323232" stroke-width="2" fill="none" marker-end="url(#SvgjsMarker1293)"></path><rect id="SvgjsRect1295" width="9" height="16" x="475.8977645441289" y="681.235853432284" fill="#ffffff"></rect><text id="SvgjsText1296" font-family="微软雅黑" text-anchor="middle" font-size="13px" width="9" fill="#323232" font-weight="400" align="top" anchor="middle" family="微软雅黑" size="13px" weight="400" font-style="" y="679.285853432284" transform="rotate(0)"><tspan id="SvgjsTspan1297" dy="16" x="480.3977645441289"><tspan id="SvgjsTspan1298" style="text-decoration:;">N</tspan></tspan></text></g><g id="SvgjsG1299"><path id="SvgjsPath1300" d="M812.6060868340844 803.6542207792235L842.6060868340844 803.6542207792235L842.6060868340844 25.011363636363612L343.16903409090924 25.011363636363612L343.16903409090924 55.01136363636357" stroke="#323232" stroke-width="2" fill="none" marker-end="url(#SvgjsMarker1301)"></path></g></svg>